# xmcd
#
# Track frame offsets: 
#        150
#        13499
#        26242
#        41350
#        55146
#        70411
#        84233
#        98957
#        113406
#        127541
#        141955
#        155206
#        170584
#        183856
#        196735
#        209605
#        222260
#        235843
#        250552
#        264401
#        303231
#        318669
#        333449
#
# Disc length: 4626 seconds
#
# Revision: 0
# Processed by: cddbd v1.5.2PL0 Copyright (c) Steve Scherf et al.
# Submitted via: ExactAudioCopy v1.0b3
#
DISCID=42121017
DTITLE=Bessie Smith - Empress of the Blues - CDB
DYEAR=1900
DGENRE=Blues
TTITLE0=Standin' In The Rain
TTITLE1=It Won't Be You
TTITLE2=Spider Man Blues
TTITLE3=Empty Bed Blues Part 1
TTITLE4=Empty Bed Blues Part 2
TTITLE5=Put It Right In There
TTITLE6=Yes Indeed He Do
TTITLE7=Devil's Gonna Git You
TTITLE8=You Ought To Be Ashamed
TTITLE9=Washwoman's Blues
TTITLE10=Slow and Easy Man
TTITLE11=Poor Man's Blues
TTITLE12=Please Help Me Get Him Off My Mind
TTITLE13=Me And My Gin
TTITLE14=I'm Wild About That Thing
TTITLE15=You've Got To Give Me Some
TTITLE16=Kitchen Man
TTITLE17=I've Got What It Takes
TTITLE18=Nobody Knows You When You're Down And Out
TTITLE19=Film Soundtrack - St Louis Blues
TTITLE20=Take It Right Back
TTITLE21=He's Got Me Goin'
TTITLE22=It Makes My Love Come Down
EXTD=
EXTT0=
EXTT1=
EXTT2=
EXTT3=
EXTT4=
EXTT5=
EXTT6=
EXTT7=
EXTT8=
EXTT9=
EXTT10=
EXTT11=
EXTT12=
EXTT13=
EXTT14=
EXTT15=
EXTT16=
EXTT17=
EXTT18=
EXTT19=
EXTT20=
EXTT21=
EXTT22=
PLAYORDER=
